<svg xmlns="http://www.w3.org/2000/svg" width="320" height="220" viewBox="0 0 320 220"><rect width="320" height="220" rx="20" fill="#FFF3E4"/><rect x="0" y="170" width="320" height="50" fill="#F3DCC0"/><path d="M188 92 L244 50 L300 92 L300 170 L188 170 Z" fill="#FFFFFF"/><path d="M180 96 L244 46 L308 96" fill="none" stroke="#E07A5F" stroke-width="8" stroke-linecap="round" stroke-linejoin="round"/><rect x="206" y="110" width="30" height="28" rx="4" fill="#FBDDB8"/><rect x="254" y="122" width="28" height="48" rx="4" fill="#E07A5F"/><path d="M20 196 C60 186 90 200 130 188" fill="none" stroke="#0F766E" stroke-width="5" stroke-linecap="round"/><path d="M130 188 C150 182 168 184 182 178" fill="none" stroke="#0F766E" stroke-width="4" stroke-linecap="round" stroke-dasharray="2 9"/><circle cx="130" cy="188" r="9" fill="#0F766E" stroke="#0F766E" stroke-width="3"/><path d="M-3.5 -4.2 C-2 -6.5 3.8 -6 3.4 -2.4 C3.1 -0.4 0.5 -0.3 -0.6 -0.3 C1.5 -0.3 4 0.4 3.8 2.8 C3.5 6.5 -2.6 6.4 -3.8 3.8" transform="translate(130 188)" fill="none" stroke="#FFFFFF" stroke-width="2.4" stroke-linecap="round" stroke-linejoin="round"/><path d="M63.0 172 L63.0 132 C63.0 116 78 110 96 110 C114 110 129.0 116 129.0 132 L129.0 172 Z" fill="#5B7DB1"/><circle cx="72" cy="91" r="6" fill="#8D5A3B"/><circle cx="120" cy="91" r="6" fill="#8D5A3B"/><ellipse cx="96" cy="88" rx="24" ry="26" fill="#8D5A3B"/><path d="M71 86 C68 58 116 50 121 82 C110 72 92 68 82 74 C78 78 74 82 71 86 Z" fill="#1E1B19"/><circle cx="88" cy="90" r="2.6" fill="#2E2A27"/><circle cx="104" cy="90" r="2.6" fill="#2E2A27"/><path d="M89 99 C92 104 100 104 103 99" fill="none" stroke="#2E2A27" stroke-width="2.4" stroke-linecap="round"/><path d="M70 132 C68 150 84 156 104 146" fill="none" stroke="#5B7DB1" stroke-width="12" stroke-linecap="round"/><rect x="100" y="122" width="26" height="42" rx="5" fill="#2E2A27"/><rect x="104" y="127" width="18" height="30" rx="3" fill="#FFFFFF"/><path d="M113 132 L120 135 L120 141 C120 146 116 149 113 151 C110 149 106 146 106 141 L106 135 Z" fill="#0F766E"/><path d="M109.5 141 L112 144 L116.5 138.5" fill="none" stroke="#FFFFFF" stroke-width="2" stroke-linecap="round" stroke-linejoin="round"/><circle cx="104" cy="146" r="6" fill="#8D5A3B"/><rect x="138" y="150" width="28" height="22" rx="4" fill="#E07A5F"/><path d="M144 150 C144 142 160 142 160 150" fill="none" stroke="#B95842" stroke-width="2.6"/></svg>