<svg xmlns="http://www.w3.org/2000/svg" width="320" height="220" viewBox="0 0 320 220"><rect width="320" height="220" rx="20" fill="#2A231E"/><circle cx="64" cy="54" r="34" fill="#4A3A2C"/><path d="M0 150 C80 128 240 128 320 150 L320 220 L0 220 Z" fill="#141110" opacity="0.88"/><path d="M24 118 L296 118" stroke="#4A3E35" stroke-width="6" stroke-linecap="round"/><rect x="232" y="44" width="40" height="40" rx="10" fill="#2BB3A1"/><path d="M245 74 L245 54 L254 54 C262 54 262 66 254 66 L245 66" fill="none" stroke="#F6EEE6" stroke-width="4" stroke-linecap="round" stroke-linejoin="round"/><rect x="250" y="84" width="4" height="34" fill="#A69A90"/><circle cx="92" cy="200" r="46" fill="none" stroke="#A69A90" stroke-width="10"/><path d="M50 196 L134 196" stroke="#A69A90" stroke-width="8"/><rect x="168" y="120" width="12" height="40" rx="3" fill="#A69A90"/><rect x="150" y="96" width="92" height="64" rx="10" fill="#0E0C0B"/><rect x="156" y="102" width="80" height="52" rx="6" fill="#F6EEE6"/><rect x="162" y="128" width="32" height="20" rx="6" fill="#2BB3A1"/><rect x="198" y="128" width="32" height="20" rx="6" fill="#1E6E66"/><rect x="162" y="110" width="40" height="6" rx="3" fill="#A69A90" opacity="0.4"/><circle cx="222" cy="114" r="8" fill="#2BB3A1" stroke="#2BB3A1" stroke-width="3"/><path d="M-3.5 -2.5 C-3.5 -6 3.5 -6 3.5 -2.5 C3.5 0 -3.5 2.5 -3.5 5.5 L3.8 5.5" transform="translate(222 114)" fill="none" stroke="#F6EEE6" stroke-width="2.4" stroke-linecap="round" stroke-linejoin="round"/><path d="M140 230 C146 204 156 188 166 176" fill="none" stroke="#E8A05A" stroke-width="24" stroke-linecap="round"/><path d="M166 176 C170 166 174 158 178 150" fill="none" stroke="#8D5A3B" stroke-width="16" stroke-linecap="round"/><ellipse cx="179" cy="145" rx="9" ry="8" fill="#8D5A3B"/><rect x="20" y="22" width="0" height="0" fill="none"/></svg>